<svg id="brandicon" width="24px" height="24px" data-name="레이어 1" xmlns="http://www.w3.org/2000/svg" viewBox="0 0 256 256"><defs><style>.cls-1{fill:#2ec276;}</style></defs><title>inflearn_logo_w</title><path class="cls-1" d="M202.73,67.73a95.84,95.84,0,0,0-36.51-28A92.55,92.55,0,0,0,130.63,32c-.47,0-.94,0-1.42,0H128a96,96,0,0,0,0,192h96V128A95.57,95.57,0,0,0,202.73,67.73ZM64.81,170.54l0,0A76.18,76.18,0,1,1,204.16,128v40.88l-.22,25.69-70.22-71.41L149.2,80.44A7,7,0,0,0,136,75.66l-13.18,36.4L99.52,88.38a7,7,0,0,0-10,9.85l55.26,56.19H103.05a7,7,0,0,0,0,14.05h55.53l35.1,35.69H134.45l-6.92-.06a74.76,74.76,0,0,1-29.59-6.21,77.45,77.45,0,0,1-32.42-26.33Z"></path></svg>