<svg width="968" height="608" viewBox="0 0 968 608" fill="none" xmlns="http://www.w3.org/2000/svg">
<g filter="url(#filter0_f_1066_853)">
<rect x="4" y="4" width="960" height="600" rx="16" fill="white"/>
<rect x="4.5" y="4.5" width="959" height="599" rx="15.5" stroke="#D2D2D2"/>
</g>
<rect x="82.5" y="50.5" width="365" height="520" rx="11.5" fill="#F3F4F6" stroke="#DDE0E4"/>
<rect x="105.5" y="136.5" width="320" height="64" rx="11.5" fill="white" stroke="#DDE0E4"/>
<path d="M122.736 176V161.859H124.494V168.148H131.975V161.859H133.752V176H131.975V169.691H124.494V176H122.736ZM136.076 163.422V161.859H146.74V163.422H142.307V176H140.529V163.422H136.076ZM149.084 161.859H151.193L155.959 173.5H156.135L160.9 161.859H163.01V176H161.35V165.316H161.213L156.818 176H155.256L150.861 165.316H150.744V176H149.084V161.859ZM166.135 176V161.859H167.893V174.438H174.455V176H166.135ZM195.295 160.238V170.102H193.771V160.238H195.295ZM181.096 168.441C183.723 167.523 185.549 165.17 185.549 162.621V160.922H187.111V162.621C187.092 165.072 188.967 167.24 191.525 168.148L190.744 169.32C188.732 168.627 187.121 167.162 186.34 165.268C185.568 167.279 183.947 168.881 181.877 169.652L181.096 168.441ZM184.006 177.348V171.098H195.295V177.348H184.006ZM185.51 176.098H193.791V172.348H185.51V176.098ZM211.721 160.219V167.621H214.494V168.91H211.721V177.582H210.178V160.219H211.721ZM198.029 172.953C199.445 172.953 201.096 172.943 202.814 172.895V170.98C200.793 170.746 199.475 169.555 199.494 167.836C199.475 165.873 201.135 164.604 203.596 164.613C206.018 164.604 207.707 165.873 207.717 167.836C207.707 169.564 206.369 170.746 204.357 170.98V172.836C205.969 172.758 207.609 172.621 209.123 172.406L209.221 173.578C205.432 174.223 201.33 174.262 198.283 174.262L198.029 172.953ZM198.342 163.598V162.348H202.814V160.258H204.357V162.348H208.811V163.598H198.342ZM200.92 167.836C200.93 169.037 201.984 169.828 203.596 169.809C205.178 169.828 206.242 169.037 206.252 167.836C206.242 166.625 205.178 165.805 203.596 165.805C201.984 165.805 200.93 166.625 200.92 167.836Z" fill="black"/>
<rect x="104.5" y="219.5" width="320" height="64" rx="11.5" fill="white" stroke="#DDE0E4"/>
<path d="M132.334 249.312C131.924 247.359 130.254 246.305 128.389 246.305C125.83 246.305 123.848 248.277 123.838 251.93C123.848 255.572 125.83 257.545 128.389 257.555C130.254 257.545 131.914 256.5 132.334 254.566H134.092C133.584 257.457 131.26 259.195 128.389 259.195C124.756 259.195 122.129 256.402 122.139 251.93C122.129 247.457 124.756 244.664 128.389 244.664C131.25 244.664 133.564 246.373 134.092 249.312H132.334ZM144.268 248.414C144.121 247.027 142.832 246.227 141.143 246.227C139.268 246.227 138.047 247.203 138.037 248.551C138.047 250.035 139.697 250.592 140.771 250.855L142.178 251.246C143.691 251.637 146.182 252.506 146.182 255.152C146.182 257.457 144.326 259.244 141.045 259.254C137.998 259.244 136.113 257.672 135.947 255.328H137.744C137.891 256.91 139.365 257.662 141.045 257.652C142.998 257.662 144.463 256.656 144.463 255.113C144.463 253.736 143.154 253.209 141.67 252.789L139.932 252.32C137.715 251.676 136.328 250.543 136.338 248.629C136.328 246.236 138.457 244.664 141.201 244.664C143.945 244.664 145.918 246.266 145.986 248.414H144.268ZM156.416 248.414C156.27 247.027 154.98 246.227 153.291 246.227C151.416 246.227 150.195 247.203 150.186 248.551C150.195 250.035 151.846 250.592 152.92 250.855L154.326 251.246C155.84 251.637 158.33 252.506 158.33 255.152C158.33 257.457 156.475 259.244 153.193 259.254C150.146 259.244 148.262 257.672 148.096 255.328H149.893C150.039 256.91 151.514 257.662 153.193 257.652C155.146 257.662 156.611 256.656 156.611 255.113C156.611 253.736 155.303 253.209 153.818 252.789L152.08 252.32C149.863 251.676 148.477 250.543 148.486 248.629C148.477 246.236 150.605 244.664 153.35 244.664C156.094 244.664 158.066 246.266 158.135 248.414H156.416ZM179.365 243.219V260.582H177.822V243.219H179.365ZM165.225 256.07C169.922 253.844 172.324 250.514 172.666 246.363H166.025V245.113H174.229C174.209 250.104 171.885 254.527 166.064 257.32L165.225 256.07ZM198.193 257.105V258.395H182.295V257.105H189.463V253.121H190.967V257.105H198.193ZM183.174 252.535C186.523 251.998 189.424 249.977 189.443 247.262H183.779V245.992H189.463V243.59H190.967V245.992H196.67V247.262H191.006C191.006 249.977 193.906 251.998 197.236 252.535L196.65 253.746C193.877 253.258 191.328 251.852 190.215 249.674C189.121 251.852 186.572 253.258 183.779 253.746L183.174 252.535Z" fill="black"/>
<rect x="105.5" y="302.5" width="320" height="64" rx="11.5" fill="white" stroke="#DDE0E4"/>
<path d="M128.156 327.859H129.934V337.957C129.924 340.672 128.342 342.195 125.871 342.195C123.527 342.195 121.828 340.857 121.828 338.66H123.566C123.576 339.861 124.543 340.633 125.871 340.633C127.326 340.633 128.156 339.705 128.156 337.957V327.859ZM132.336 338.992C132.336 336.561 134.484 336.004 136.32 335.867C137.004 335.818 138.713 335.721 139.191 335.711V334.852C139.191 333.504 138.391 332.723 136.789 332.723C135.451 332.723 134.641 333.338 134.406 334.148H132.648C132.863 332.439 134.523 331.258 136.867 331.258C138.254 331.258 140.861 331.668 140.852 335.008V342H139.191V340.555H139.113C138.762 341.268 137.795 342.244 135.949 342.254C133.938 342.244 132.336 341.062 132.336 338.992ZM134.016 339.07C134.025 340.193 134.953 340.76 136.242 340.75C138.137 340.76 139.191 339.49 139.191 338.152V337.088C138.693 337.117 137.023 337.244 136.516 337.273C134.992 337.371 134.025 337.908 134.016 339.07ZM151.887 331.395L147.961 342H146.223L142.316 331.395H144.152L147.043 339.812H147.16L150.051 331.395H151.887ZM152.902 338.992C152.902 336.561 155.051 336.004 156.887 335.867C157.57 335.818 159.279 335.721 159.758 335.711V334.852C159.758 333.504 158.957 332.723 157.355 332.723C156.018 332.723 155.207 333.338 154.973 334.148H153.215C153.43 332.439 155.09 331.258 157.434 331.258C158.82 331.258 161.428 331.668 161.418 335.008V342H159.758V340.555H159.68C159.328 341.268 158.361 342.244 156.516 342.254C154.504 342.244 152.902 341.062 152.902 338.992ZM154.582 339.07C154.592 340.193 155.52 340.76 156.809 340.75C158.703 340.76 159.758 339.49 159.758 338.152V337.088C159.26 337.117 157.59 337.244 157.082 337.273C155.559 337.371 154.592 337.908 154.582 339.07ZM172.043 331.414C171.896 330.027 170.607 329.227 168.918 329.227C167.043 329.227 165.822 330.203 165.812 331.551C165.822 333.035 167.473 333.592 168.547 333.855L169.953 334.246C171.467 334.637 173.957 335.506 173.957 338.152C173.957 340.457 172.102 342.244 168.82 342.254C165.773 342.244 163.889 340.672 163.723 338.328H165.52C165.666 339.91 167.141 340.662 168.82 340.652C170.773 340.662 172.238 339.656 172.238 338.113C172.238 336.736 170.93 336.209 169.445 335.789L167.707 335.32C165.49 334.676 164.104 333.543 164.113 331.629C164.104 329.236 166.232 327.664 168.977 327.664C171.721 327.664 173.693 329.266 173.762 331.414H172.043ZM180.598 342.215C177.59 342.225 175.754 339.93 175.754 336.746C175.754 333.523 177.678 331.258 180.559 331.258C182.814 331.258 184.514 332.596 184.777 334.598H183.098C182.854 333.631 182.014 332.742 180.598 332.742C178.703 332.742 177.443 334.305 177.434 336.688C177.443 339.139 178.674 340.711 180.598 340.711C181.848 340.711 182.805 340.037 183.098 338.875H184.777C184.514 340.77 182.951 342.225 180.598 342.215ZM186.848 342V331.395H188.469V333.016H188.586C188.967 331.941 190.07 331.229 191.32 331.219C191.574 331.229 192.004 331.238 192.199 331.258V332.957C192.072 332.928 191.623 332.84 191.184 332.84C189.66 332.84 188.527 333.895 188.527 335.32V342H186.848ZM193.84 342V331.395H195.52V342H193.84ZM193.508 328.523C193.498 327.898 194.035 327.4 194.68 327.41C195.324 327.4 195.861 327.898 195.871 328.523C195.861 329.139 195.324 329.637 194.68 329.637C194.035 329.637 193.498 329.139 193.508 328.523ZM198.195 345.984V331.395H199.816V333.074H200.012C200.373 332.508 201.018 331.258 203.078 331.258C205.744 331.258 207.59 333.367 207.59 336.727C207.59 340.096 205.744 342.225 203.098 342.215C201.076 342.225 200.373 340.965 200.012 340.379H199.875V345.984H198.195ZM199.836 336.688C199.846 339.07 200.91 340.711 202.863 340.711C204.875 340.711 205.91 338.943 205.91 336.688C205.91 334.471 204.904 332.762 202.863 332.762C200.881 332.762 199.846 334.334 199.836 336.688ZM214.406 331.395V332.801H212.18V338.953C212.17 340.311 212.854 340.535 213.566 340.535C213.869 340.535 214.318 340.506 214.562 340.496V342.059C214.299 342.098 213.889 342.137 213.391 342.137C211.975 342.137 210.49 341.258 210.48 339.383V332.801H208.879V331.395H210.48V328.855H212.18V331.395H214.406ZM235.305 326.219V343.582H233.762V326.219H235.305ZM221.164 339.07C225.861 336.844 228.264 333.514 228.605 329.363H221.965V328.113H230.168C230.148 333.104 227.824 337.527 222.004 340.32L221.164 339.07ZM254.133 340.105V341.395H238.234V340.105H245.402V336.121H246.906V340.105H254.133ZM239.113 335.535C242.463 334.998 245.363 332.977 245.383 330.262H239.719V328.992H245.402V326.59H246.906V328.992H252.609V330.262H246.945C246.945 332.977 249.846 334.998 253.176 335.535L252.59 336.746C249.816 336.258 247.268 334.852 246.154 332.674C245.061 334.852 242.512 336.258 239.719 336.746L239.113 335.535Z" fill="black"/>
<path d="M124.264 88.5H105.42V85.4062H112.908V82.207H116.811V85.4062H124.264V88.5ZM107.037 95.5312C107.037 94.3828 107.365 93.3691 108.021 92.4902C108.689 91.6113 109.615 90.9316 110.799 90.4512C111.982 89.9707 113.33 89.7305 114.842 89.7305C116.354 89.7305 117.695 89.9707 118.867 90.4512C120.051 90.9316 120.971 91.6113 121.627 92.4902C122.283 93.3691 122.611 94.3828 122.611 95.5312C122.611 96.6797 122.283 97.6934 121.627 98.5723C120.971 99.4512 120.051 100.131 118.867 100.611C117.695 101.092 116.354 101.332 114.842 101.332C113.33 101.332 111.982 101.092 110.799 100.611C109.615 100.131 108.689 99.4512 108.021 98.5723C107.365 97.6934 107.037 96.6797 107.037 95.5312ZM109.287 103.723H130.451V114.129H126.549V106.852H109.287V103.723ZM110.834 95.5312C110.822 96.4102 111.174 97.0957 111.889 97.5879C112.604 98.0684 113.564 98.3086 114.771 98.3086C116.025 98.3086 117.021 98.0684 117.76 97.5879C118.51 97.1074 118.885 96.4219 118.885 95.5312C118.885 94.6406 118.516 93.9434 117.777 93.4395C117.039 92.9355 116.061 92.6836 114.842 92.6836C113.623 92.6836 112.645 92.9355 111.906 93.4395C111.18 93.9434 110.822 94.6406 110.834 95.5312ZM126.549 82.3477H130.451V90.7852H134.881V93.9844H130.451V102.246H126.549V82.3477ZM143.846 104.426H157.838V101.402H161.74V113.742H139.979V101.402H143.846V104.426ZM136.498 96.4102H165.467V99.6094H136.498V96.4102ZM137.975 91.6641C140.131 91.3945 142.041 90.873 143.705 90.0996C145.381 89.3262 146.676 88.3945 147.59 87.3047C148.504 86.2148 148.967 85.0781 148.979 83.8945V82.6992H152.986V83.8945C152.986 85.043 153.443 86.168 154.357 87.2695C155.283 88.3711 156.578 89.3203 158.242 90.1172C159.906 90.9023 161.799 91.418 163.92 91.6641L162.549 94.7578C159.912 94.4062 157.58 93.6738 155.553 92.5605C153.537 91.4473 152.014 90.0762 150.982 88.4473C149.951 90.0762 148.422 91.4473 146.395 92.5605C144.367 93.6621 142.041 94.3945 139.416 94.7578L137.975 91.6641ZM157.838 110.648V107.414H143.846V110.648H157.838ZM196.58 100.102H183.994V102.773C186.865 102.961 189.092 103.541 190.674 104.514C192.256 105.475 193.053 106.77 193.064 108.398C193.064 109.605 192.619 110.631 191.729 111.475C190.85 112.33 189.584 112.98 187.932 113.426C186.291 113.871 184.334 114.094 182.061 114.094C179.752 114.094 177.766 113.871 176.102 113.426C174.449 112.992 173.184 112.348 172.305 111.492C171.426 110.637 170.986 109.605 170.986 108.398C170.986 106.77 171.783 105.469 173.377 104.496C174.971 103.523 177.221 102.943 180.127 102.756V100.102H167.611V96.9375H196.58V100.102ZM169.018 92.4023C170.904 92.2266 172.586 91.8691 174.062 91.3301C175.551 90.791 176.74 90.1348 177.631 89.3613C178.533 88.5879 179.096 87.7617 179.318 86.8828H170.248V83.7539H193.979V86.8828H184.82C185.031 87.7617 185.582 88.5938 186.473 89.3789C187.375 90.1523 188.57 90.8086 190.059 91.3477C191.559 91.875 193.275 92.2266 195.209 92.4023L193.838 95.4961C190.967 95.2031 188.5 94.5176 186.438 93.4395C184.387 92.3496 182.928 90.9961 182.061 89.3789C181.193 91.0078 179.74 92.3613 177.701 93.4395C175.662 94.5176 173.213 95.2031 170.354 95.4961L169.018 92.4023ZM174.959 108.398C174.947 109.266 175.539 109.934 176.734 110.402C177.93 110.871 179.664 111.105 181.938 111.105C184.27 111.105 186.051 110.877 187.281 110.42C188.523 109.963 189.15 109.289 189.162 108.398C189.15 107.52 188.535 106.852 187.316 106.395C186.098 105.938 184.346 105.703 182.061 105.691C179.74 105.703 177.971 105.938 176.752 106.395C175.545 106.852 174.947 107.52 174.959 108.398Z" fill="black"/>
<rect x="492.5" y="50.5" width="365" height="520" rx="11.5" fill="#F3F4F6" stroke="#DDE0E4"/>
<rect x="515.5" y="136.5" width="320" height="64" rx="11.5" fill="white" stroke="#DDE0E4"/>
<path d="M531.736 176V161.859H533.494V168.148H540.975V161.859H542.752V176H540.975V169.691H533.494V176H531.736ZM545.076 163.422V161.859H555.74V163.422H551.307V176H549.529V163.422H545.076ZM558.084 161.859H560.193L564.959 173.5H565.135L569.9 161.859H572.01V176H570.35V165.316H570.213L565.818 176H564.256L559.861 165.316H559.744V176H558.084V161.859ZM575.135 176V161.859H576.893V174.438H583.455V176H575.135ZM604.314 160.219V177.582H602.771V160.219H604.314ZM590.174 173.07C594.871 170.844 597.273 167.514 597.615 163.363H590.975V162.113H599.178C599.158 167.104 596.834 171.527 591.014 174.32L590.174 173.07ZM623.143 174.105V175.395H607.244V174.105H614.412V170.121H615.916V174.105H623.143ZM608.123 169.535C611.473 168.998 614.373 166.977 614.393 164.262H608.729V162.992H614.412V160.59H615.916V162.992H621.619V164.262H615.955C615.955 166.977 618.855 168.998 622.186 169.535L621.6 170.746C618.826 170.258 616.277 168.852 615.164 166.674C614.07 168.852 611.521 170.258 608.729 170.746L608.123 169.535Z" fill="black"/>
<path d="M535.207 88.5H516.363V85.4062H523.852V82.207H527.754V85.4062H535.207V88.5ZM517.98 95.5312C517.98 94.3828 518.309 93.3691 518.965 92.4902C519.633 91.6113 520.559 90.9316 521.742 90.4512C522.926 89.9707 524.273 89.7305 525.785 89.7305C527.297 89.7305 528.639 89.9707 529.811 90.4512C530.994 90.9316 531.914 91.6113 532.57 92.4902C533.227 93.3691 533.555 94.3828 533.555 95.5312C533.555 96.6797 533.227 97.6934 532.57 98.5723C531.914 99.4512 530.994 100.131 529.811 100.611C528.639 101.092 527.297 101.332 525.785 101.332C524.273 101.332 522.926 101.092 521.742 100.611C520.559 100.131 519.633 99.4512 518.965 98.5723C518.309 97.6934 517.98 96.6797 517.98 95.5312ZM520.23 103.723H541.395V114.129H537.492V106.852H520.23V103.723ZM521.777 95.5312C521.766 96.4102 522.117 97.0957 522.832 97.5879C523.547 98.0684 524.508 98.3086 525.715 98.3086C526.969 98.3086 527.965 98.0684 528.703 97.5879C529.453 97.1074 529.828 96.4219 529.828 95.5312C529.828 94.6406 529.459 93.9434 528.721 93.4395C527.982 92.9355 527.004 92.6836 525.785 92.6836C524.566 92.6836 523.588 92.9355 522.85 93.4395C522.123 93.9434 521.766 94.6406 521.777 95.5312ZM537.492 82.3477H541.395V90.7852H545.824V93.9844H541.395V102.246H537.492V82.3477ZM554.789 104.426H568.781V101.402H572.684V113.742H550.922V101.402H554.789V104.426ZM547.441 96.4102H576.41V99.6094H547.441V96.4102ZM548.918 91.6641C551.074 91.3945 552.984 90.873 554.648 90.0996C556.324 89.3262 557.619 88.3945 558.533 87.3047C559.447 86.2148 559.91 85.0781 559.922 83.8945V82.6992H563.93V83.8945C563.93 85.043 564.387 86.168 565.301 87.2695C566.227 88.3711 567.521 89.3203 569.186 90.1172C570.85 90.9023 572.742 91.418 574.863 91.6641L573.492 94.7578C570.855 94.4062 568.523 93.6738 566.496 92.5605C564.48 91.4473 562.957 90.0762 561.926 88.4473C560.895 90.0762 559.365 91.4473 557.338 92.5605C555.311 93.6621 552.984 94.3945 550.359 94.7578L548.918 91.6641ZM568.781 110.648V107.414H554.789V110.648H568.781ZM588.152 83.7188C589.688 83.7188 591.059 83.9883 592.266 84.5273C593.473 85.0664 594.416 85.8223 595.096 86.7949C595.775 87.7559 596.121 88.8633 596.133 90.1172C596.121 91.1602 595.863 92.1094 595.359 92.9648C594.867 93.8203 594.176 94.541 593.285 95.127C592.395 95.7012 591.363 96.0938 590.191 96.3047V98.8711C593.168 98.6953 595.758 98.4492 597.961 98.1328L598.277 100.98C595.441 101.484 592.465 101.83 589.348 102.018C586.23 102.193 583.02 102.281 579.715 102.281H578.906L578.484 99.1523C581.414 99.1523 584.004 99.1172 586.254 99.0469V96.3223C585.047 96.123 583.986 95.7363 583.072 95.1621C582.158 94.5879 581.449 93.8672 580.945 93C580.453 92.1328 580.207 91.1719 580.207 90.1172C580.207 88.8633 580.541 87.7559 581.209 86.7949C581.889 85.8223 582.832 85.0664 584.039 84.5273C585.246 83.9883 586.617 83.7188 588.152 83.7188ZM582.844 104.496H586.746V110.297H604.852V113.461H582.844V104.496ZM583.863 90.1172C583.852 90.7969 584.027 91.3945 584.391 91.9102C584.754 92.4258 585.258 92.8242 585.902 93.1055C586.559 93.3867 587.309 93.5273 588.152 93.5273C589.441 93.5156 590.473 93.2051 591.246 92.5957C592.031 91.9863 592.43 91.1602 592.441 90.1172C592.43 89.0625 592.031 88.2305 591.246 87.6211C590.473 87.0117 589.441 86.707 588.152 86.707C587.309 86.707 586.559 86.8418 585.902 87.1113C585.258 87.3809 584.754 87.7734 584.391 88.2891C584.027 88.8047 583.852 89.4141 583.863 90.1172ZM599.824 82.3828H603.727V92.6484H608.016V95.8828H603.727V106.641H599.824V82.3828ZM638.707 110.438H609.668V107.203H617.367V101.965H613.113V91.5938H631.395V87.6914H613.043V84.5273H635.262V94.7227H617.016V98.8008H636V101.965H631.359V107.203H638.707V110.438ZM627.527 107.203V101.965H621.164V107.203H627.527Z" fill="black"/>
<defs>
<filter id="filter0_f_1066_853" x="0" y="0" width="968" height="608" filterUnits="userSpaceOnUse" color-interpolation-filters="sRGB">
<feFlood flood-opacity="0" result="BackgroundImageFix"/>
<feBlend mode="normal" in="SourceGraphic" in2="BackgroundImageFix" result="shape"/>
<feGaussianBlur stdDeviation="2" result="effect1_foregroundBlur_1066_853"/>
</filter>
</defs>
</svg>
