<svg width="968" height="608" viewBox="0 0 968 608" fill="none" xmlns="http://www.w3.org/2000/svg">
<g filter="url(#filter0_f_1068_3807)">
<rect x="4" y="4" width="960" height="600" rx="16" fill="white"/>
<rect x="4.5" y="4.5" width="959" height="599" rx="15.5" stroke="#D2D2D2"/>
</g>
<rect x="726" y="525" width="146" height="53.2471" rx="8" fill="#1DD185"/>
<path d="M776.25 546.326C776.245 546.925 776.375 547.501 776.641 548.053C776.911 548.605 777.302 549.097 777.812 549.529C778.323 549.962 778.927 550.295 779.625 550.529L778.875 551.686C778.094 551.415 777.414 551.019 776.836 550.498C776.263 549.977 775.823 549.368 775.516 548.67C775.208 549.43 774.755 550.097 774.156 550.67C773.562 551.238 772.859 551.665 772.047 551.951L771.25 550.795C771.964 550.55 772.586 550.199 773.117 549.74C773.648 549.282 774.055 548.758 774.336 548.17C774.617 547.576 774.76 546.956 774.766 546.311V545.936H771.688V544.732H779.266V545.936H776.25V546.326ZM773.109 552.936H782.359V557.811H780.875V554.139H773.109V552.936ZM780.875 543.811H782.359V547.404H784.391V548.654H782.359V552.248H780.875V543.811ZM790.156 545.904C790.156 546.555 790.292 547.175 790.562 547.764C790.833 548.347 791.224 548.86 791.734 549.303C792.245 549.745 792.849 550.081 793.547 550.311L792.734 551.467C791.969 551.186 791.307 550.785 790.75 550.264C790.193 549.743 789.76 549.128 789.453 548.42C789.146 549.232 788.693 549.938 788.094 550.537C787.495 551.136 786.776 551.587 785.938 551.889L785.141 550.701C785.875 550.451 786.508 550.089 787.039 549.615C787.57 549.136 787.977 548.584 788.258 547.959C788.539 547.334 788.682 546.67 788.688 545.967V544.592H790.156V545.904ZM787.438 555.139C787.438 554.576 787.625 554.094 788 553.693C788.38 553.292 788.924 552.988 789.633 552.779C790.346 552.571 791.193 552.467 792.172 552.467C793.146 552.467 793.987 552.571 794.695 552.779C795.404 552.988 795.948 553.292 796.328 553.693C796.714 554.094 796.906 554.576 796.906 555.139C796.906 555.696 796.714 556.173 796.328 556.568C795.948 556.964 795.404 557.264 794.695 557.467C793.987 557.675 793.146 557.779 792.172 557.779C791.193 557.779 790.346 557.675 789.633 557.467C788.924 557.264 788.38 556.964 788 556.568C787.625 556.173 787.438 555.696 787.438 555.139ZM788.906 555.139C788.906 555.446 789.031 555.709 789.281 555.928C789.536 556.146 789.906 556.316 790.391 556.436C790.875 556.55 791.453 556.607 792.125 556.607C793.167 556.607 793.977 556.48 794.555 556.225C795.138 555.969 795.432 555.607 795.438 555.139C795.432 554.66 795.141 554.287 794.562 554.021C793.99 553.756 793.193 553.623 792.172 553.623C791.141 553.623 790.336 553.756 789.758 554.021C789.185 554.287 788.901 554.66 788.906 555.139ZM792.422 546.654H795.375V543.811H796.859V552.076H795.375V547.873H792.422V546.654ZM809.922 549.482H812.172V550.717H809.922V557.811H808.453V543.811H809.922V549.482ZM798.938 545.998H802.391V543.998H803.875V545.998H807.234V547.217H798.938V545.998ZM799.656 551.498C799.656 550.873 799.805 550.313 800.102 549.818C800.404 549.324 800.818 548.938 801.344 548.662C801.875 548.386 802.474 548.248 803.141 548.248C803.802 548.248 804.396 548.386 804.922 548.662C805.453 548.938 805.87 549.324 806.172 549.818C806.474 550.313 806.625 550.873 806.625 551.498C806.625 552.128 806.474 552.691 806.172 553.186C805.87 553.68 805.453 554.068 804.922 554.35C804.396 554.626 803.802 554.764 803.141 554.764C802.474 554.764 801.875 554.626 801.344 554.35C800.818 554.068 800.404 553.68 800.102 553.186C799.805 552.691 799.656 552.128 799.656 551.498ZM801.078 551.498C801.078 551.899 801.164 552.253 801.336 552.561C801.513 552.868 801.758 553.105 802.07 553.271C802.388 553.438 802.745 553.519 803.141 553.514C803.531 553.519 803.883 553.438 804.195 553.271C804.508 553.105 804.753 552.868 804.93 552.561C805.112 552.253 805.203 551.899 805.203 551.498C805.203 551.107 805.112 550.758 804.93 550.451C804.753 550.144 804.508 549.904 804.195 549.732C803.883 549.555 803.531 549.467 803.141 549.467C802.745 549.467 802.388 549.555 802.07 549.732C801.758 549.904 801.513 550.144 801.336 550.451C801.164 550.758 801.078 551.107 801.078 551.498ZM824.484 557.811H822.984V543.811H824.484V557.811ZM812.984 554.061C814.818 553.186 816.211 552.12 817.164 550.865C818.117 549.61 818.667 548.154 818.812 546.498H813.656V545.311H820.312C820.312 547.477 819.794 549.402 818.758 551.084C817.727 552.766 816.062 554.16 813.766 555.264L812.984 554.061Z" fill="white"/>
<path d="M114.318 309.436H115.438V322.092H114.318V309.436ZM109.068 314.266H112.246V315.218H109.068V314.266ZM111.77 309.73H112.876V321.448H111.77V309.73ZM105.162 318.074H105.974C107.948 318.074 109.138 318.018 110.538 317.724L110.65 318.69C109.208 318.998 107.99 319.054 105.974 319.054H105.162V318.074ZM105.162 310.976H109.922V311.928H106.31V318.452H105.162V310.976ZM121.121 309.898C123.011 309.898 124.397 311.046 124.397 312.712C124.397 314.364 123.011 315.512 121.121 315.512C119.245 315.512 117.859 314.364 117.859 312.712C117.859 311.046 119.245 309.898 121.121 309.898ZM121.121 310.85C119.903 310.85 118.979 311.62 118.979 312.712C118.979 313.804 119.903 314.56 121.121 314.56C122.353 314.56 123.263 313.804 123.263 312.712C123.263 311.62 122.353 310.85 121.121 310.85ZM126.777 309.436H127.953V315.918H126.777V309.436ZM119.763 316.534H127.953V319.614H120.925V321.518H119.791V318.746H126.805V317.472H119.763V316.534ZM119.791 321H128.373V321.924H119.791V321ZM139.67 309.422H140.832V322.106H139.67V309.422ZM131.186 318.088H132.236C134.35 318.088 136.24 318.004 138.48 317.64L138.606 318.592C136.31 318.97 134.406 319.054 132.236 319.054H131.186V318.088ZM131.158 310.612H137.01V315.134H132.348V318.452H131.186V314.182H135.834V311.564H131.158V310.612ZM150.15 310.738H151.102V311.76C151.102 314.084 149.702 316.016 147.588 316.772L146.972 315.862C148.89 315.19 150.15 313.566 150.15 311.76V310.738ZM150.36 310.738H151.312V311.746C151.312 313.426 152.53 314.98 154.392 315.61L153.79 316.52C151.704 315.792 150.36 313.93 150.36 311.746V310.738ZM147.336 310.318H154.098V311.27H147.336V310.318ZM155.694 309.436H156.856V317.052H155.694V309.436ZM156.534 312.768H158.732V313.734H156.534V312.768ZM148.638 317.724H156.856V322.092H155.694V318.69H148.638V317.724ZM163.099 310.15H164.065V311.452C164.065 313.902 162.679 315.904 160.509 316.716L159.907 315.764C161.839 315.078 163.099 313.384 163.099 311.452V310.15ZM163.309 310.15H164.261V311.41C164.261 313.202 165.493 314.784 167.341 315.428L166.711 316.338C164.667 315.568 163.309 313.706 163.309 311.41V310.15ZM169.161 309.436H170.323V316.926H169.161V309.436ZM166.165 317.29C168.769 317.29 170.379 318.172 170.379 319.684C170.379 321.196 168.769 322.064 166.165 322.064C163.547 322.064 161.937 321.196 161.937 319.684C161.937 318.172 163.547 317.29 166.165 317.29ZM166.165 318.214C164.261 318.214 163.099 318.76 163.099 319.684C163.099 320.608 164.261 321.154 166.165 321.154C168.069 321.154 169.231 320.608 169.231 319.684C169.231 318.76 168.069 318.214 166.165 318.214ZM166.417 312.11H169.413V313.076H166.417V312.11ZM186.109 309.436H187.229V322.092H186.109V309.436ZM183.981 314.588H186.417V315.54H183.981V314.588ZM183.239 309.716H184.331V321.448H183.239V309.716ZM177.107 310.962H178.269V318.27H177.107V310.962ZM177.107 317.808H177.919C179.221 317.808 180.677 317.724 182.329 317.402L182.455 318.41C180.733 318.746 179.277 318.816 177.919 318.816H177.107V317.808ZM192.198 313.72H193.346V316.114H192.198V313.72ZM196.846 313.72H197.994V316.114H196.846V313.72ZM189.37 315.694H200.808V316.632H189.37V315.694ZM195.082 317.584C197.798 317.584 199.422 318.382 199.422 319.824C199.422 321.266 197.798 322.078 195.082 322.078C192.366 322.078 190.742 321.266 190.742 319.824C190.742 318.382 192.366 317.584 195.082 317.584ZM195.082 318.48C193.108 318.48 191.918 318.97 191.918 319.824C191.918 320.692 193.108 321.168 195.082 321.168C197.07 321.168 198.246 320.692 198.246 319.824C198.246 318.97 197.07 318.48 195.082 318.48ZM195.096 309.66C197.84 309.66 199.548 310.542 199.548 312.026C199.548 313.496 197.84 314.364 195.096 314.364C192.338 314.364 190.644 313.496 190.644 312.026C190.644 310.542 192.338 309.66 195.096 309.66ZM195.096 310.57C193.08 310.57 191.834 311.102 191.834 312.026C191.834 312.936 193.08 313.468 195.096 313.468C197.112 313.468 198.358 312.936 198.358 312.026C198.358 311.102 197.112 310.57 195.096 310.57Z" fill="#111928"/>
<rect x="104.5" y="338.5" width="767" height="161" rx="7.5" fill="white"/>
<rect x="104.5" y="338.5" width="767" height="161" rx="7.5" stroke="#D1D5DB"/>
<path d="M113.94 196.45H115.102V206.096H113.94V196.45ZM111.798 199.796H114.43V200.748H111.798V199.796ZM111.798 202.47H114.43V203.408H111.798V202.47ZM104.714 197.976H111.798V198.914H104.714V197.976ZM108.298 199.614C109.978 199.614 111.154 200.58 111.154 202.036C111.154 203.478 109.978 204.458 108.298 204.458C106.604 204.458 105.428 203.478 105.428 202.036C105.428 200.58 106.604 199.614 108.298 199.614ZM108.298 200.524C107.248 200.524 106.534 201.14 106.534 202.036C106.534 202.932 107.248 203.534 108.298 203.534C109.348 203.534 110.062 202.932 110.062 202.036C110.062 201.14 109.348 200.524 108.298 200.524ZM107.724 196.422H108.886V198.578H107.724V196.422ZM106.968 207.86H115.41V208.812H106.968V207.86ZM106.968 205.27H108.13V208.322H106.968V205.27ZM127.253 196.436H128.359V209.092H127.253V196.436ZM125.251 201.532H127.687V202.512H125.251V201.532ZM124.495 196.702H125.587V208.462H124.495V196.702ZM120.183 198.396H121.093V199.852C121.093 202.89 120.099 205.326 118.153 206.488L117.439 205.592C119.259 204.584 120.183 202.428 120.183 199.852V198.396ZM120.393 198.396H121.303V199.852C121.303 202.176 122.241 204.234 124.019 205.144L123.333 206.04C121.401 204.976 120.393 202.638 120.393 199.852V198.396ZM117.733 197.92H123.613V198.886H117.733V197.92ZM137.229 197.094H138.195V198.382C138.195 200.818 136.823 202.834 134.709 203.66L134.093 202.722C135.997 202.022 137.229 200.314 137.229 198.382V197.094ZM137.439 197.094H138.391V198.466C138.391 200.174 139.651 201.756 141.471 202.386L140.855 203.296C138.825 202.54 137.439 200.664 137.439 198.466V197.094ZM142.815 196.436H143.977V204.108H142.815V196.436ZM143.655 199.698H145.853V200.678H143.655V199.698ZM139.945 204.458C142.535 204.458 144.103 205.312 144.103 206.768C144.103 208.224 142.535 209.064 139.945 209.064C137.355 209.064 135.787 208.224 135.787 206.768C135.787 205.312 137.355 204.458 139.945 204.458ZM139.945 205.382C138.069 205.382 136.921 205.886 136.921 206.768C136.921 207.65 138.069 208.154 139.945 208.154C141.821 208.154 142.969 207.65 142.969 206.768C142.969 205.886 141.821 205.382 139.945 205.382ZM147.532 204.99H148.358C150.36 204.99 151.55 204.948 152.964 204.668L153.09 205.634C151.62 205.928 150.388 205.97 148.358 205.97H147.532V204.99ZM147.532 197.878H152.516V198.83H148.638V205.354H147.532V197.878ZM148.302 201.224H152.32V202.162H148.302V201.224ZM156.674 196.436H157.794V209.092H156.674V196.436ZM154.672 201.504H157.094V202.47H154.672V201.504ZM153.888 196.702H154.994V208.462H153.888V196.702Z" fill="#111928"/>
<path d="M183.7 202.5C183.7 204.277 182.994 205.981 181.738 207.238C180.481 208.494 178.777 209.2 177 209.2C175.223 209.2 173.519 208.494 172.262 207.238C171.006 205.981 170.3 204.277 170.3 202.5C170.3 200.723 171.006 199.019 172.262 197.762C173.519 196.506 175.223 195.8 177 195.8C178.777 195.8 180.481 196.506 181.738 197.762C182.994 199.019 183.7 200.723 183.7 202.5ZM177.99 199.89C178.252 199.627 178.4 199.271 178.4 198.9C178.4 198.529 178.252 198.173 177.99 197.91C177.727 197.648 177.371 197.5 177 197.5C176.629 197.5 176.273 197.648 176.01 197.91C175.747 198.173 175.6 198.529 175.6 198.9C175.6 199.271 175.747 199.627 176.01 199.89C176.273 200.153 176.629 200.3 177 200.3C177.371 200.3 177.727 200.153 177.99 199.89ZM176.1 201.1C175.729 201.1 175.373 201.248 175.11 201.51C174.847 201.773 174.7 202.129 174.7 202.5C174.7 202.871 174.847 203.227 175.11 203.49C175.251 203.631 175.418 203.738 175.6 203.808V206.1C175.6 206.471 175.747 206.827 176.01 207.09C176.273 207.353 176.629 207.5 177 207.5H177.9C178.271 207.5 178.627 207.353 178.89 207.09C179.152 206.827 179.3 206.471 179.3 206.1C179.3 205.729 179.152 205.373 178.89 205.11C178.749 204.97 178.582 204.862 178.4 204.792V202.5C178.4 202.129 178.252 201.773 177.99 201.51C177.727 201.248 177.371 201.1 177 201.1H176.1Z" fill="#9CA3AF" stroke="#9CA3AF"/>
<rect x="104.5" y="221.5" width="367" height="51" rx="7.5" fill="white"/>
<path d="M131.296 239.768H132.624V254.264H131.296V239.768ZM121.616 241H122.928V244.824H127.104V241H128.432V250.776H121.616V241ZM122.928 245.88V249.688H127.104V245.88H122.928ZM143.183 243.768H146.831V244.856H143.183V243.768ZM146.079 239.8H147.407V250.392H146.079V239.8ZM138.175 252.84H147.807V253.928H138.175V252.84ZM138.175 249.464H139.503V253.4H138.175V249.464ZM139.199 241.592H140.287V242.76C140.287 245.384 138.655 247.656 136.239 248.552L135.551 247.496C137.711 246.728 139.199 244.808 139.199 242.76V241.592ZM139.455 241.592H140.527V242.744C140.527 244.616 141.935 246.44 144.031 247.176L143.359 248.216C141.007 247.368 139.455 245.192 139.455 242.744V241.592ZM135.967 240.968H143.695V242.04H135.967V240.968ZM156.718 248.904C159.79 248.904 161.758 249.912 161.758 251.576C161.758 253.224 159.79 254.216 156.718 254.216C153.63 254.216 151.678 253.224 151.678 251.576C151.678 249.912 153.63 248.904 156.718 248.904ZM156.718 249.944C154.446 249.944 152.99 250.568 152.99 251.576C152.99 252.568 154.446 253.192 156.718 253.192C158.99 253.192 160.43 252.568 160.43 251.576C160.43 250.568 158.99 249.944 156.718 249.944ZM151.789 240.504H161.102V241.592H151.789V240.504ZM150.238 246.52H163.294V247.592H150.238V246.52ZM155.598 243.736H156.91V246.824H155.598V243.736ZM160.334 240.504H161.63V241.736C161.63 242.904 161.63 244.072 161.246 245.576L159.934 245.416C160.334 243.928 160.334 242.872 160.334 241.736V240.504ZM168.524 241.848H169.58V244.2C169.58 247.208 167.74 250.312 165.484 251.464L164.716 250.408C166.78 249.4 168.524 246.648 168.524 244.2V241.848ZM168.764 241.848H169.82V244.2C169.82 246.488 171.452 249.064 173.548 250.056L172.796 251.112C170.508 249.976 168.764 247.064 168.764 244.2V241.848ZM165.228 241.256H173.02V242.376H165.228V241.256ZM174.732 239.784H176.076V254.248H174.732V239.784ZM175.756 245.624H178.444V246.744H175.756V245.624Z" fill="#6B7280"/>
<path d="M452.25 244.75L447 250L441.75 244.75" stroke="#6B7280" strokeWidth="2" strokeLinecap="round" strokeLinejoin="round"/>
<rect x="104.5" y="221.5" width="367" height="51" rx="7.5" stroke="#D1D5DB"/>
<path d="M139.688 355.784H141.016V366.36H139.688V355.784ZM140.6 360.168H143.16V361.272H140.6V360.168ZM135.736 356.904H137.144C137.144 360.648 134.52 363.384 130.376 364.712L129.8 363.624C133.448 362.504 135.736 360.264 135.736 357.48V356.904ZM130.392 356.904H136.408V357.992H130.392V356.904ZM131.992 368.84H141.656V369.928H131.992V368.84ZM131.992 365.288H133.32V369.272H131.992V365.288ZM154.407 355.768H155.735V366.248H154.407V355.768ZM155.335 360.072H157.879V361.176H155.335V360.072ZM145.175 362.6H146.295C149.271 362.6 150.951 362.52 152.887 362.12L153.031 363.192C151.047 363.608 149.335 363.704 146.295 363.704H145.175V362.6ZM145.175 357.016H151.559V358.12H146.487V363.192H145.175V357.016ZM146.727 368.84H156.391V369.928H146.727V368.84ZM146.727 365.208H148.055V369.336H146.727V365.208ZM169.03 355.784H170.358V370.248H169.03V355.784ZM170.038 361.72H172.726V362.84H170.038V361.72ZM159.158 358.088H167.686V359.176H159.158V358.088ZM163.478 360.376C165.526 360.376 166.998 361.752 166.998 363.704C166.998 365.656 165.526 367.032 163.478 367.032C161.446 367.032 159.958 365.656 159.958 363.704C159.958 361.752 161.446 360.376 163.478 360.376ZM163.478 361.48C162.166 361.48 161.222 362.392 161.222 363.704C161.222 365 162.166 365.928 163.478 365.928C164.79 365.928 165.734 365 165.734 363.704C165.734 362.392 164.79 361.48 163.478 361.48ZM162.79 355.96H164.118V358.584H162.79V355.96ZM184.964 355.784H186.244V370.248H184.964V355.784ZM178.692 361.688H182.34V362.76H178.692V361.688ZM181.956 356.152H183.204V369.512H181.956V356.152ZM178.868 357.608H180.148C180.148 361.4 178.628 364.808 174.724 367.128L173.94 366.184C177.348 364.136 178.868 361.256 178.868 357.848V357.608ZM174.58 357.608H179.364V358.696H174.58V357.608ZM193.207 357.304H201.751V358.392H193.207V357.304ZM197.479 359.128C199.527 359.128 200.935 360.152 200.935 361.752C200.935 363.336 199.527 364.344 197.479 364.344C195.399 364.344 194.007 363.336 194.007 361.752C194.007 360.152 195.399 359.128 197.479 359.128ZM197.479 360.168C196.151 360.168 195.271 360.776 195.271 361.752C195.271 362.696 196.151 363.32 197.479 363.32C198.775 363.32 199.671 362.696 199.671 361.752C199.671 360.776 198.775 360.168 197.479 360.168ZM203.063 355.784H204.391V364.824H203.063V355.784ZM204.023 359.768H206.535V360.872H204.023V359.768ZM194.999 365.608H204.391V370.248H203.063V366.696H194.999V365.608ZM196.807 355.704H198.135V357.912H196.807V355.704ZM209.542 364.456H210.854V366.136H217.926V364.456H219.254V370.056H209.542V364.456ZM210.854 367.16V368.984H217.926V367.16H210.854ZM207.878 362.376H220.95V363.448H207.878V362.376ZM213.75 355.944H214.886V356.584C214.886 359.096 212.086 360.904 209.11 361.352L208.63 360.312C211.238 359.96 213.75 358.408 213.75 356.584V355.944ZM213.958 355.944H215.094V356.584C215.094 358.376 217.638 359.96 220.214 360.312L219.718 361.352C216.774 360.904 213.958 359.064 213.958 356.584V355.944ZM232.501 355.8H233.829V366.648H232.501V355.8ZM233.413 360.536H235.973V361.656H233.413V360.536ZM222.645 357.544H231.189V358.616H222.645V357.544ZM226.917 359.416C228.965 359.416 230.373 360.488 230.373 362.12C230.373 363.736 228.965 364.808 226.917 364.808C224.853 364.808 223.445 363.736 223.445 362.12C223.445 360.488 224.853 359.416 226.917 359.416ZM226.917 360.456C225.605 360.456 224.709 361.112 224.709 362.12C224.709 363.112 225.605 363.768 226.917 363.768C228.213 363.768 229.109 363.112 229.109 362.12C229.109 361.112 228.213 360.456 226.917 360.456ZM226.245 355.784H227.573V358.104H226.245V355.784ZM224.821 368.84H234.485V369.928H224.821V368.84ZM224.821 365.784H226.149V369.304H224.821V365.784ZM252.807 355.784H254.087V370.248H252.807V355.784ZM250.375 361.672H253.159V362.76H250.375V361.672ZM249.527 356.104H250.775V369.512H249.527V356.104ZM242.519 357.528H243.847V365.88H242.519V357.528ZM242.519 365.352H243.447C244.935 365.352 246.599 365.256 248.487 364.888L248.631 366.04C246.663 366.424 244.999 366.504 243.447 366.504H242.519V365.352ZM259.766 360.68H261.078V363.416H259.766V360.68ZM265.078 360.68H266.39V363.416H265.078V360.68ZM256.534 362.936H269.606V364.008H256.534V362.936ZM263.062 365.096C266.166 365.096 268.022 366.008 268.022 367.656C268.022 369.304 266.166 370.232 263.062 370.232C259.958 370.232 258.102 369.304 258.102 367.656C258.102 366.008 259.958 365.096 263.062 365.096ZM263.062 366.12C260.806 366.12 259.446 366.68 259.446 367.656C259.446 368.648 260.806 369.192 263.062 369.192C265.334 369.192 266.678 368.648 266.678 367.656C266.678 366.68 265.334 366.12 263.062 366.12ZM263.078 356.04C266.214 356.04 268.166 357.048 268.166 358.744C268.166 360.424 266.214 361.416 263.078 361.416C259.926 361.416 257.99 360.424 257.99 358.744C257.99 357.048 259.926 356.04 263.078 356.04ZM263.078 357.08C260.774 357.08 259.35 357.688 259.35 358.744C259.35 359.784 260.774 360.392 263.078 360.392C265.382 360.392 266.806 359.784 266.806 358.744C266.806 357.688 265.382 357.08 263.078 357.08ZM277.797 356.024C280.981 356.024 282.885 356.92 282.885 358.536C282.885 360.152 280.981 361.048 277.797 361.048C274.597 361.048 272.709 360.152 272.709 358.536C272.709 356.92 274.597 356.024 277.797 356.024ZM277.797 357.032C275.429 357.032 274.069 357.576 274.069 358.536C274.069 359.496 275.429 360.04 277.797 360.04C280.149 360.04 281.509 359.496 281.509 358.536C281.509 357.576 280.149 357.032 277.797 357.032ZM271.253 362.008H284.325V363.08H271.253V362.008ZM272.837 364.312H282.661V367.576H274.181V369.336H272.869V366.616H281.349V365.336H272.837V364.312ZM272.869 369.048H283.093V370.088H272.869V369.048ZM294.04 357.272H295.128V358.44C295.128 361.096 293.528 363.304 291.112 364.168L290.408 363.128C292.6 362.36 294.04 360.504 294.04 358.44V357.272ZM294.28 357.272H295.368V358.424C295.368 360.344 296.76 362.12 298.888 362.84L298.2 363.88C295.816 363.048 294.28 360.92 294.28 358.424V357.272ZM290.824 356.792H298.552V357.88H290.824V356.792ZM300.376 355.784H301.704V364.488H300.376V355.784ZM301.336 359.592H303.848V360.696H301.336V359.592ZM292.312 365.256H301.704V370.248H300.376V366.36H292.312V365.256ZM308.838 356.6H309.942V358.088C309.942 360.888 308.358 363.176 305.878 364.104L305.19 363.016C307.398 362.232 308.838 360.296 308.838 358.088V356.6ZM309.078 356.6H310.166V358.04C310.166 360.088 311.574 361.896 313.686 362.632L312.966 363.672C310.63 362.792 309.078 360.664 309.078 358.04V356.6ZM315.766 355.784H317.094V364.344H315.766V355.784ZM312.342 364.76C315.318 364.76 317.158 365.768 317.158 367.496C317.158 369.224 315.318 370.216 312.342 370.216C309.35 370.216 307.51 369.224 307.51 367.496C307.51 365.768 309.35 364.76 312.342 364.76ZM312.342 365.816C310.166 365.816 308.838 366.44 308.838 367.496C308.838 368.552 310.166 369.176 312.342 369.176C314.518 369.176 315.846 368.552 315.846 367.496C315.846 366.44 314.518 365.816 312.342 365.816ZM312.63 358.84H316.054V359.944H312.63V358.84ZM319.893 358.248H327.061V359.336H319.893V358.248ZM323.477 360.296C325.285 360.296 326.597 361.656 326.597 363.608C326.597 365.544 325.285 366.904 323.477 366.904C321.685 366.904 320.373 365.544 320.373 363.608C320.373 361.656 321.685 360.296 323.477 360.296ZM323.477 361.432C322.373 361.432 321.573 362.328 321.573 363.608C321.573 364.888 322.373 365.784 323.477 365.784C324.597 365.784 325.413 364.888 325.413 363.608C325.413 362.328 324.597 361.432 323.477 361.432ZM330.885 355.784H332.165V370.248H330.885V355.784ZM328.581 361.864H331.317V362.968H328.581V361.864ZM327.797 356.104H329.045V369.544H327.797V356.104ZM322.837 356.2H324.149V358.92H322.837V356.2ZM334.644 367.304H347.748V368.408H334.644V367.304ZM340.5 363.848H341.828V367.624H340.5V363.848ZM336.18 356.808H337.492V359.384H344.868V356.808H346.18V364.2H336.18V356.808ZM337.492 360.456V363.112H344.868V360.456H337.492ZM355.059 360.952H357.827V362.056H355.059V360.952ZM352.355 357.144H353.395V359.896C353.395 362.92 352.131 365.848 350.019 367.144L349.187 366.136C351.171 364.968 352.355 362.376 352.355 359.896V357.144ZM352.611 357.144H353.635V359.848C353.635 362.168 354.723 364.632 356.627 365.784L355.859 366.824C353.779 365.544 352.611 362.664 352.611 359.848V357.144ZM360.371 355.784H361.651V370.248H360.371V355.784ZM357.443 356.088H358.691V369.528H357.443V356.088ZM367.281 363.224H368.593V367.56H367.281V363.224ZM372.625 363.224H373.953V367.56H372.625V363.224ZM364.081 367.304H377.185V368.408H364.081V367.304ZM370.609 356.696C373.665 356.696 375.857 358.152 375.857 360.424C375.857 362.68 373.665 364.136 370.609 364.136C367.537 364.136 365.345 362.68 365.345 360.424C365.345 358.152 367.537 356.696 370.609 356.696ZM370.609 357.752C368.289 357.752 366.625 358.808 366.625 360.424C366.625 362.024 368.289 363.08 370.609 363.08C372.929 363.08 374.577 362.024 374.577 360.424C374.577 358.808 372.929 357.752 370.609 357.752ZM381 357.364L380.886 365.727H379.568L379.455 357.364H381ZM380.227 369.091C379.947 369.091 379.706 368.991 379.506 368.79C379.305 368.589 379.205 368.348 379.205 368.068C379.205 367.788 379.305 367.547 379.506 367.347C379.706 367.146 379.947 367.045 380.227 367.045C380.508 367.045 380.748 367.146 380.949 367.347C381.15 367.547 381.25 367.788 381.25 368.068C381.25 368.254 381.203 368.424 381.108 368.58C381.017 368.735 380.894 368.86 380.739 368.955C380.587 369.045 380.417 369.091 380.227 369.091Z" fill="#6B7280"/>
<path d="M106.618 91.402H115.074V96.106H113.898V92.354H106.618V91.402ZM113.898 83.45H115.074V90.758H113.898V83.45ZM105.484 84.136H106.632V89.288H105.484V84.136ZM105.484 88.77H106.506C108.424 88.77 110.398 88.644 112.526 88.21L112.694 89.176C110.482 89.61 108.48 89.75 106.506 89.75H105.484V88.77ZM118.181 84.794H119.329V92.214H118.181V84.794ZM118.181 91.878H118.993C120.463 91.878 121.835 91.808 123.431 91.486L123.585 92.48C121.933 92.816 120.519 92.886 118.993 92.886H118.181V91.878ZM127.211 83.436H128.331V96.092H127.211V83.436ZM121.695 87.678H124.859V88.644H121.695V87.678ZM124.537 83.73H125.629V95.448H124.537V83.73ZM139.656 83.45H140.832V90.674H139.656V83.45ZM132.656 91.36H140.832V95.924H132.656V91.36ZM139.684 92.284H133.79V94.986H139.684V92.284ZM134.042 84.108C135.96 84.108 137.332 85.312 137.332 87.062C137.332 88.812 135.96 90.016 134.042 90.016C132.124 90.016 130.738 88.812 130.738 87.062C130.738 85.312 132.124 84.108 134.042 84.108ZM134.042 85.074C132.782 85.074 131.872 85.886 131.872 87.062C131.872 88.238 132.782 89.036 134.042 89.036C135.302 89.036 136.212 88.238 136.212 87.062C136.212 85.886 135.302 85.074 134.042 85.074Z" fill="#111928"/>
<rect x="104.5" y="108.5" width="367" height="51" rx="7.5" fill="white"/>
<path d="M120.8 138.368H133.904V139.472H120.8V138.368ZM126.656 135.264H127.984V138.832H126.656V135.264ZM122.384 127.856H132.288V132.24H123.744V135.136H122.432V131.168H130.976V128.928H122.384V127.856ZM122.432 134.576H132.624V135.664H122.432V134.576ZM137.167 133.712H147.103V134.8H137.167V133.712ZM135.519 138.192H148.623V139.296H135.519V138.192ZM137.167 128.112H146.959V129.216H138.495V134.192H137.167V128.112ZM151.918 134.576H161.854V135.648H151.918V134.576ZM150.238 138.288H163.342V139.392H150.238V138.288ZM151.918 128.016H161.694V129.104H153.262V134.912H151.918V128.016ZM152.83 131.248H161.39V132.304H152.83V131.248ZM175.484 126.768H176.812V141.264H175.484V126.768ZM165.788 136.672H166.988C169.404 136.672 171.564 136.576 174.124 136.16L174.268 137.248C171.644 137.68 169.468 137.776 166.988 137.776H165.788V136.672ZM165.756 128.128H172.444V133.296H167.116V137.088H165.788V132.208H171.1V129.216H165.756V128.128Z" fill="#6B7280"/>
<rect x="104.5" y="108.5" width="367" height="51" rx="7.5" stroke="#D1D5DB"/>
<defs>
<filter id="filter0_f_1068_3807" x="0" y="0" width="968" height="608" filterUnits="userSpaceOnUse" color-interpolation-filters="sRGB">
<feFlood flood-opacity="0" result="BackgroundImageFix"/>
<feBlend mode="normal" in="SourceGraphic" in2="BackgroundImageFix" result="shape"/>
<feGaussianBlur stdDeviation="2" result="effect1_foregroundBlur_1068_3807"/>
</filter>
</defs>
</svg>
