<svg width="968" height="608" viewBox="0 0 968 608" fill="none" xmlns="http://www.w3.org/2000/svg">
<g filter="url(#filter0_f_1067_873)">
<rect x="4" y="4" width="960" height="600" rx="16" fill="white"/>
<rect x="4.5" y="4.5" width="959" height="599" rx="15.5" stroke="#D2D2D2"/>
</g>
<path d="M242 277.5H418C424.351 277.5 429.5 282.649 429.5 289V305C429.5 311.351 424.351 316.5 418 316.5H242C235.649 316.5 230.5 311.351 230.5 305V289C230.5 282.649 235.649 277.5 242 277.5Z" fill="white" stroke="black"/>
<path d="M295.203 294.797C295.151 294.318 294.935 293.943 294.555 293.672C294.18 293.401 293.69 293.266 293.086 293.266C292.659 293.266 292.286 293.328 291.969 293.453C291.656 293.578 291.417 293.753 291.25 293.977C291.083 294.201 291 294.456 291 294.742C291 295.169 291.18 295.503 291.539 295.742C291.898 295.977 292.365 296.161 292.938 296.297L294 296.578C294.974 296.802 295.768 297.174 296.383 297.695C297.003 298.211 297.312 298.922 297.312 299.828C297.312 300.49 297.143 301.073 296.805 301.578C296.466 302.083 295.974 302.477 295.328 302.758C294.688 303.034 293.922 303.172 293.031 303.172C292.156 303.172 291.393 303.036 290.742 302.766C290.096 302.49 289.591 302.089 289.227 301.562C288.862 301.036 288.667 300.406 288.641 299.672H290.641C290.688 300.24 290.927 300.674 291.359 300.977C291.792 301.279 292.344 301.432 293.016 301.438C293.458 301.438 293.849 301.37 294.188 301.234C294.531 301.094 294.799 300.901 294.992 300.656C295.185 300.411 295.281 300.13 295.281 299.812C295.276 299.396 295.104 299.073 294.766 298.844C294.427 298.609 293.917 298.406 293.234 298.234L291.953 297.906C289.943 297.38 288.938 296.365 288.938 294.859C288.938 294.203 289.117 293.625 289.477 293.125C289.836 292.62 290.331 292.229 290.961 291.953C291.591 291.672 292.302 291.531 293.094 291.531C293.88 291.531 294.578 291.669 295.188 291.945C295.802 292.221 296.281 292.609 296.625 293.109C296.969 293.604 297.146 294.167 297.156 294.797H295.203ZM298.906 294.516H300.859V295.906H300.984C301.193 295.495 301.484 295.143 301.859 294.852C302.234 294.555 302.755 294.406 303.422 294.406C304.083 294.406 304.677 294.576 305.203 294.914C305.734 295.253 306.154 295.75 306.461 296.406C306.768 297.062 306.922 297.849 306.922 298.766C306.922 299.672 306.771 300.456 306.469 301.117C306.167 301.779 305.75 302.284 305.219 302.633C304.693 302.977 304.094 303.151 303.422 303.156C302.771 303.151 302.253 303.003 301.867 302.711C301.482 302.419 301.188 302.068 300.984 301.656H300.906V306.188H298.906V294.516ZM300.859 298.75C300.865 299.302 300.945 299.786 301.102 300.203C301.258 300.62 301.487 300.943 301.789 301.172C302.091 301.401 302.453 301.516 302.875 301.516C303.302 301.516 303.667 301.398 303.969 301.164C304.276 300.93 304.505 300.604 304.656 300.188C304.812 299.771 304.891 299.292 304.891 298.75C304.891 297.932 304.716 297.276 304.367 296.781C304.023 296.286 303.526 296.036 302.875 296.031C302.234 296.036 301.74 296.281 301.391 296.766C301.042 297.25 300.865 297.911 300.859 298.75ZM308.484 294.516H310.422V295.922H310.516C310.667 295.438 310.93 295.062 311.305 294.797C311.68 294.526 312.115 294.391 312.609 294.391C312.839 294.391 313.078 294.406 313.328 294.438V296.281C313.24 296.25 313.104 296.224 312.922 296.203C312.745 296.177 312.573 296.161 312.406 296.156C312.042 296.156 311.714 296.237 311.422 296.398C311.13 296.555 310.901 296.773 310.734 297.055C310.568 297.331 310.484 297.646 310.484 298V303H308.484V294.516ZM314.516 294.516H316.516V303H314.516V294.516ZM315.531 293.312C315.323 293.312 315.13 293.263 314.953 293.164C314.776 293.065 314.635 292.932 314.531 292.766C314.427 292.599 314.375 292.417 314.375 292.219C314.375 292.026 314.427 291.846 314.531 291.68C314.635 291.513 314.776 291.383 314.953 291.289C315.13 291.19 315.323 291.141 315.531 291.141C315.74 291.141 315.932 291.19 316.109 291.289C316.286 291.383 316.427 291.513 316.531 291.68C316.635 291.846 316.688 292.026 316.688 292.219C316.688 292.417 316.635 292.599 316.531 292.766C316.427 292.932 316.286 293.065 316.109 293.164C315.932 293.263 315.74 293.312 315.531 293.312ZM320.422 303H318.422V294.516H320.328V295.953H320.438C320.635 295.469 320.948 295.091 321.375 294.82C321.807 294.544 322.333 294.406 322.953 294.406C323.542 294.406 324.055 294.531 324.492 294.781C324.93 295.031 325.266 295.396 325.5 295.875C325.74 296.354 325.859 296.927 325.859 297.594V303H323.875V297.906C323.875 297.333 323.729 296.888 323.438 296.57C323.146 296.247 322.74 296.089 322.219 296.094C321.865 296.089 321.552 296.164 321.281 296.32C321.01 296.471 320.799 296.695 320.648 296.992C320.497 297.284 320.422 297.63 320.422 298.031V303ZM331.469 306.359C330.724 306.359 330.073 306.253 329.516 306.039C328.958 305.831 328.518 305.531 328.195 305.141C327.878 304.755 327.698 304.297 327.656 303.766H329.641C329.708 304.13 329.904 304.401 330.227 304.578C330.549 304.76 330.974 304.854 331.5 304.859C332.125 304.854 332.609 304.708 332.953 304.422C333.297 304.135 333.469 303.693 333.469 303.094V301.469H333.375C333.177 301.859 332.883 302.193 332.492 302.469C332.102 302.74 331.578 302.875 330.922 302.875C330.255 302.875 329.656 302.716 329.125 302.398C328.599 302.076 328.182 301.602 327.875 300.977C327.573 300.346 327.422 299.583 327.422 298.688C327.422 297.786 327.576 297.013 327.883 296.367C328.19 295.721 328.609 295.234 329.141 294.906C329.672 294.573 330.271 294.406 330.938 294.406C331.599 294.406 332.117 294.552 332.492 294.844C332.867 295.135 333.161 295.49 333.375 295.906H333.469V294.516H335.438V303.141C335.438 303.844 335.268 304.435 334.93 304.914C334.596 305.398 334.13 305.76 333.531 306C332.932 306.24 332.245 306.359 331.469 306.359ZM329.453 298.719C329.453 299.516 329.628 300.148 329.977 300.617C330.326 301.081 330.823 301.312 331.469 301.312C332.109 301.312 332.604 301.086 332.953 300.633C333.307 300.174 333.484 299.536 333.484 298.719C333.484 298.177 333.406 297.706 333.25 297.305C333.094 296.898 332.865 296.586 332.562 296.367C332.26 296.143 331.896 296.031 331.469 296.031C331.036 296.031 330.669 296.148 330.367 296.383C330.065 296.612 329.836 296.93 329.68 297.336C329.529 297.737 329.453 298.198 329.453 298.719ZM337.438 291.688H341.766C342.562 291.688 343.234 291.812 343.781 292.062C344.333 292.312 344.745 292.659 345.016 293.102C345.292 293.544 345.432 294.052 345.438 294.625C345.432 295.281 345.247 295.812 344.883 296.219C344.523 296.62 344.047 296.891 343.453 297.031V297.141C343.865 297.161 344.255 297.286 344.625 297.516C345 297.745 345.302 298.068 345.531 298.484C345.76 298.896 345.875 299.375 345.875 299.922C345.875 300.521 345.729 301.052 345.438 301.516C345.151 301.979 344.719 302.344 344.141 302.609C343.562 302.87 342.854 303 342.016 303H337.438V291.688ZM341.703 301.297C342.417 301.297 342.945 301.161 343.289 300.891C343.633 300.615 343.807 300.24 343.812 299.766C343.807 299.427 343.721 299.122 343.555 298.852C343.388 298.581 343.148 298.367 342.836 298.211C342.523 298.049 342.161 297.969 341.75 297.969H339.469V301.297H341.703ZM341.516 296.5C341.875 296.5 342.195 296.435 342.477 296.305C342.763 296.169 342.99 295.979 343.156 295.734C343.323 295.49 343.406 295.203 343.406 294.875C343.401 294.427 343.24 294.065 342.922 293.789C342.604 293.513 342.151 293.375 341.562 293.375H339.469V296.5H341.516ZM351.141 303.172C350.323 303.172 349.607 302.99 348.992 302.625C348.383 302.26 347.911 301.747 347.578 301.086C347.245 300.424 347.078 299.661 347.078 298.797C347.078 297.922 347.245 297.154 347.578 296.492C347.911 295.831 348.383 295.318 348.992 294.953C349.607 294.589 350.323 294.406 351.141 294.406C351.958 294.406 352.674 294.589 353.289 294.953C353.904 295.318 354.375 295.831 354.703 296.492C355.036 297.154 355.203 297.922 355.203 298.797C355.203 299.661 355.036 300.424 354.703 301.086C354.375 301.747 353.904 302.26 353.289 302.625C352.674 302.99 351.958 303.172 351.141 303.172ZM349.094 298.781C349.094 299.312 349.169 299.789 349.32 300.211C349.477 300.633 349.708 300.966 350.016 301.211C350.328 301.456 350.708 301.578 351.156 301.578C351.594 301.578 351.966 301.456 352.273 301.211C352.581 300.966 352.81 300.633 352.961 300.211C353.117 299.789 353.193 299.312 353.188 298.781C353.193 298.25 353.117 297.773 352.961 297.352C352.81 296.93 352.581 296.596 352.273 296.352C351.966 296.107 351.594 295.984 351.156 295.984C350.708 295.984 350.328 296.107 350.016 296.352C349.708 296.596 349.477 296.93 349.32 297.352C349.169 297.773 349.094 298.25 349.094 298.781ZM360.453 303.172C359.635 303.172 358.919 302.99 358.305 302.625C357.695 302.26 357.224 301.747 356.891 301.086C356.557 300.424 356.391 299.661 356.391 298.797C356.391 297.922 356.557 297.154 356.891 296.492C357.224 295.831 357.695 295.318 358.305 294.953C358.919 294.589 359.635 294.406 360.453 294.406C361.271 294.406 361.987 294.589 362.602 294.953C363.216 295.318 363.688 295.831 364.016 296.492C364.349 297.154 364.516 297.922 364.516 298.797C364.516 299.661 364.349 300.424 364.016 301.086C363.688 301.747 363.216 302.26 362.602 302.625C361.987 302.99 361.271 303.172 360.453 303.172ZM358.406 298.781C358.406 299.312 358.482 299.789 358.633 300.211C358.789 300.633 359.021 300.966 359.328 301.211C359.641 301.456 360.021 301.578 360.469 301.578C360.906 301.578 361.279 301.456 361.586 301.211C361.893 300.966 362.122 300.633 362.273 300.211C362.43 299.789 362.505 299.312 362.5 298.781C362.505 298.25 362.43 297.773 362.273 297.352C362.122 296.93 361.893 296.596 361.586 296.352C361.279 296.107 360.906 295.984 360.469 295.984C360.021 295.984 359.641 296.107 359.328 296.352C359.021 296.596 358.789 296.93 358.633 297.352C358.482 297.773 358.406 298.25 358.406 298.781ZM370.297 296.047H368.625V300.453C368.625 300.849 368.711 301.112 368.883 301.242C369.06 301.372 369.31 301.438 369.633 301.438C369.857 301.438 370.115 301.427 370.406 301.406V303.031C370.083 303.083 369.701 303.109 369.258 303.109C368.747 303.109 368.294 303.023 367.898 302.852C367.503 302.68 367.193 302.419 366.969 302.07C366.745 301.721 366.635 301.292 366.641 300.781V296.047H365.422V294.516H366.641V292.484H368.625V294.516H370.297V296.047Z" fill="black"/>
<path d="M550 277.5H726C732.351 277.5 737.5 282.649 737.5 289V305C737.5 311.351 732.351 316.5 726 316.5H550C543.649 316.5 538.5 311.351 538.5 305V289C538.5 282.649 543.649 277.5 550 277.5Z" fill="white" stroke="black"/>
<path d="M614.203 292.797C614.151 292.318 613.935 291.943 613.555 291.672C613.18 291.401 612.69 291.266 612.086 291.266C611.659 291.266 611.286 291.328 610.969 291.453C610.656 291.578 610.417 291.753 610.25 291.977C610.083 292.201 610 292.456 610 292.742C610 293.169 610.18 293.503 610.539 293.742C610.898 293.977 611.365 294.161 611.938 294.297L613 294.578C613.974 294.802 614.768 295.174 615.383 295.695C616.003 296.211 616.312 296.922 616.312 297.828C616.312 298.49 616.143 299.073 615.805 299.578C615.466 300.083 614.974 300.477 614.328 300.758C613.688 301.034 612.922 301.172 612.031 301.172C611.156 301.172 610.393 301.036 609.742 300.766C609.096 300.49 608.591 300.089 608.227 299.562C607.862 299.036 607.667 298.406 607.641 297.672H609.641C609.688 298.24 609.927 298.674 610.359 298.977C610.792 299.279 611.344 299.432 612.016 299.438C612.458 299.438 612.849 299.37 613.188 299.234C613.531 299.094 613.799 298.901 613.992 298.656C614.185 298.411 614.281 298.13 614.281 297.812C614.276 297.396 614.104 297.073 613.766 296.844C613.427 296.609 612.917 296.406 612.234 296.234L610.953 295.906C608.943 295.38 607.938 294.365 607.938 292.859C607.938 292.203 608.117 291.625 608.477 291.125C608.836 290.62 609.331 290.229 609.961 289.953C610.591 289.672 611.302 289.531 612.094 289.531C612.88 289.531 613.578 289.669 614.188 289.945C614.802 290.221 615.281 290.609 615.625 291.109C615.969 291.604 616.146 292.167 616.156 292.797H614.203ZM621.672 301.172C620.828 301.172 620.096 300.995 619.477 300.641C618.857 300.281 618.38 299.773 618.047 299.117C617.714 298.461 617.547 297.693 617.547 296.812C617.547 295.943 617.714 295.177 618.047 294.516C618.38 293.849 618.849 293.331 619.453 292.961C620.062 292.591 620.766 292.406 621.562 292.406C622.281 292.406 622.932 292.562 623.516 292.875C624.104 293.182 624.57 293.656 624.914 294.297C625.263 294.938 625.438 295.734 625.438 296.688V297.312H619.516C619.526 297.786 619.62 298.198 619.797 298.547C619.979 298.891 620.229 299.154 620.547 299.336C620.87 299.518 621.245 299.609 621.672 299.609C622.099 299.609 622.461 299.531 622.758 299.375C623.055 299.214 623.271 299 623.406 298.734H625.359C625.24 299.224 625.013 299.654 624.68 300.023C624.346 300.388 623.922 300.672 623.406 300.875C622.896 301.073 622.318 301.172 621.672 301.172ZM623.531 295.953C623.531 295.573 623.448 295.232 623.281 294.93C623.12 294.622 622.891 294.383 622.594 294.211C622.302 294.039 621.969 293.953 621.594 293.953C621.208 293.953 620.862 294.044 620.555 294.227C620.247 294.404 620.005 294.646 619.828 294.953C619.651 295.26 619.549 295.594 619.523 295.953H623.531ZM630.688 301.172C629.859 301.172 629.138 300.987 628.523 300.617C627.914 300.247 627.445 299.732 627.117 299.07C626.789 298.409 626.625 297.651 626.625 296.797C626.625 295.932 626.792 295.169 627.125 294.508C627.458 293.841 627.93 293.326 628.539 292.961C629.154 292.591 629.87 292.406 630.688 292.406C631.365 292.406 631.969 292.531 632.5 292.781C633.036 293.031 633.464 293.385 633.781 293.844C634.099 294.302 634.281 294.833 634.328 295.438H632.422C632.339 295.016 632.148 294.672 631.852 294.406C631.555 294.141 631.172 294.005 630.703 294C630.292 294 629.93 294.112 629.617 294.336C629.31 294.555 629.07 294.872 628.898 295.289C628.727 295.701 628.641 296.188 628.641 296.75C628.641 297.328 628.724 297.828 628.891 298.25C629.062 298.667 629.302 298.987 629.609 299.211C629.922 299.435 630.286 299.547 630.703 299.547C631.151 299.542 631.526 299.414 631.828 299.164C632.135 298.914 632.333 298.562 632.422 298.109H634.328C634.276 298.708 634.096 299.24 633.789 299.703C633.482 300.161 633.062 300.521 632.531 300.781C632 301.042 631.385 301.172 630.688 301.172ZM641.25 292.516H643.234V301H641.312V299.5H641.219C641.016 299.99 640.693 300.38 640.25 300.672C639.812 300.964 639.286 301.109 638.672 301.109C638.109 301.109 637.615 300.984 637.188 300.734C636.76 300.484 636.427 300.12 636.188 299.641C635.948 299.161 635.828 298.589 635.828 297.922V292.516H637.828V297.609C637.828 297.964 637.893 298.276 638.023 298.547C638.159 298.812 638.346 299.018 638.586 299.164C638.831 299.305 639.115 299.375 639.438 299.375C639.74 299.375 640.029 299.302 640.305 299.156C640.586 299.005 640.812 298.784 640.984 298.492C641.161 298.201 641.25 297.849 641.25 297.438V292.516ZM645.141 292.516H647.078V293.922H647.172C647.323 293.438 647.586 293.062 647.961 292.797C648.336 292.526 648.771 292.391 649.266 292.391C649.495 292.391 649.734 292.406 649.984 292.438V294.281C649.896 294.25 649.76 294.224 649.578 294.203C649.401 294.177 649.229 294.161 649.062 294.156C648.698 294.156 648.37 294.237 648.078 294.398C647.786 294.555 647.557 294.773 647.391 295.055C647.224 295.331 647.141 295.646 647.141 296V301H645.141V292.516ZM651.172 292.516H653.172V301H651.172V292.516ZM652.188 291.312C651.979 291.312 651.786 291.263 651.609 291.164C651.432 291.065 651.292 290.932 651.188 290.766C651.083 290.599 651.031 290.417 651.031 290.219C651.031 290.026 651.083 289.846 651.188 289.68C651.292 289.513 651.432 289.383 651.609 289.289C651.786 289.19 651.979 289.141 652.188 289.141C652.396 289.141 652.589 289.19 652.766 289.289C652.943 289.383 653.083 289.513 653.188 289.68C653.292 289.846 653.344 290.026 653.344 290.219C653.344 290.417 653.292 290.599 653.188 290.766C653.083 290.932 652.943 291.065 652.766 291.164C652.589 291.263 652.396 291.312 652.188 291.312ZM659.312 294.047H657.641V298.453C657.641 298.849 657.727 299.112 657.898 299.242C658.076 299.372 658.326 299.438 658.648 299.438C658.872 299.438 659.13 299.427 659.422 299.406V301.031C659.099 301.083 658.716 301.109 658.273 301.109C657.763 301.109 657.31 301.023 656.914 300.852C656.518 300.68 656.208 300.419 655.984 300.07C655.76 299.721 655.651 299.292 655.656 298.781V294.047H654.438V292.516H655.656V290.484H657.641V292.516H659.312V294.047ZM662.047 304.188C661.536 304.177 661.193 304.161 661.016 304.141V302.547C661.198 302.562 661.404 302.57 661.633 302.57C661.685 302.576 661.76 302.578 661.859 302.578C662.062 302.573 662.229 302.552 662.359 302.516C662.49 302.484 662.617 302.398 662.742 302.258C662.867 302.122 662.984 301.911 663.094 301.625L663.266 301.172L660.172 292.516H662.281L664.25 298.922H664.344L666.312 292.516H668.422L665.016 302.031C664.766 302.734 664.401 303.268 663.922 303.633C663.443 303.997 662.818 304.182 662.047 304.188Z" fill="black"/>
<path d="M550 388.5H726C732.351 388.5 737.5 393.649 737.5 400V416C737.5 422.351 732.351 427.5 726 427.5H550C543.649 427.5 538.5 422.351 538.5 416V400C538.5 393.649 543.649 388.5 550 388.5Z" fill="white" stroke="black"/>
<path d="M630.531 402.688V410.641C630.531 411.359 630.38 411.984 630.078 412.516C629.776 413.042 629.349 413.448 628.797 413.734C628.25 414.016 627.615 414.156 626.891 414.156C626.219 414.156 625.617 414.036 625.086 413.797C624.56 413.552 624.146 413.193 623.844 412.719C623.542 412.245 623.391 411.672 623.391 411H625.422C625.427 411.453 625.57 411.812 625.852 412.078C626.133 412.344 626.505 412.479 626.969 412.484C627.464 412.479 627.844 412.32 628.109 412.008C628.375 411.695 628.51 411.24 628.516 410.641V402.688H630.531ZM632.625 402.688H636.875C637.719 402.688 638.438 402.846 639.031 403.164C639.63 403.482 640.083 403.924 640.391 404.492C640.698 405.055 640.854 405.703 640.859 406.438C640.854 407.167 640.695 407.812 640.383 408.375C640.076 408.938 639.62 409.378 639.016 409.695C638.417 410.013 637.693 410.172 636.844 410.172H634.656V414H632.625V402.688ZM636.562 408.5C637.302 408.495 637.857 408.307 638.227 407.938C638.596 407.562 638.781 407.062 638.781 406.438C638.781 405.807 638.596 405.31 638.227 404.945C637.857 404.576 637.302 404.391 636.562 404.391H634.656V408.5H636.562ZM640.5 414L644.484 402.688H646.984L650.984 414H648.812L647.867 411.203H643.609L642.672 414H640.5ZM647.32 409.562L645.781 405H645.688L644.156 409.562H647.32Z" fill="black"/>
<line x1="429.666" y1="296.628" x2="537.666" y2="199.628" stroke="black"/>
<line x1="430.358" y1="296.651" x2="538.358" y2="407.651" stroke="black"/>
<line x1="431.009" y1="294.5" x2="538.009" y2="296.5" stroke="black"/>
<path d="M550 180.5H726C732.351 180.5 737.5 185.649 737.5 192V208C737.5 214.351 732.351 219.5 726 219.5H550C543.649 219.5 538.5 214.351 538.5 208V192C538.5 185.649 543.649 180.5 550 180.5Z" fill="#489D72" stroke="black"/>
<path d="M623.547 193.688L626.906 201.906H627.047L630.406 193.688H632.906V205H630.953V197.219H630.844L627.703 204.969H626.25L623.109 197.188H623.016V205H621.047V193.688H623.547ZM639.438 202.609H639.562L642.516 193.688H644.75L640.75 205H638.25L634.266 193.688H636.5L639.438 202.609ZM653.109 197.5C653.031 197.057 652.865 196.674 652.609 196.352C652.359 196.029 652.044 195.784 651.664 195.617C651.284 195.445 650.865 195.359 650.406 195.359C649.786 195.359 649.237 195.516 648.758 195.828C648.284 196.135 647.914 196.589 647.648 197.188C647.383 197.786 647.25 198.505 647.25 199.344C647.25 200.193 647.383 200.917 647.648 201.516C647.914 202.109 648.284 202.56 648.758 202.867C649.237 203.174 649.786 203.328 650.406 203.328C650.854 203.328 651.266 203.247 651.641 203.086C652.021 202.919 652.339 202.68 652.594 202.367C652.849 202.055 653.021 201.682 653.109 201.25H655.156C655.052 201.979 654.789 202.641 654.367 203.234C653.945 203.828 653.391 204.297 652.703 204.641C652.021 204.984 651.245 205.156 650.375 205.156C649.375 205.156 648.482 204.924 647.695 204.461C646.914 203.992 646.302 203.32 645.859 202.445C645.422 201.565 645.203 200.531 645.203 199.344C645.203 198.151 645.424 197.117 645.867 196.242C646.315 195.367 646.93 194.698 647.711 194.234C648.497 193.766 649.385 193.531 650.375 193.531C651.208 193.531 651.966 193.69 652.648 194.008C653.331 194.32 653.891 194.776 654.328 195.375C654.766 195.969 655.042 196.677 655.156 197.5H653.109Z" fill="white"/>
<defs>
<filter id="filter0_f_1067_873" x="0" y="0" width="968" height="608" filterUnits="userSpaceOnUse" color-interpolation-filters="sRGB">
<feFlood flood-opacity="0" result="BackgroundImageFix"/>
<feBlend mode="normal" in="SourceGraphic" in2="BackgroundImageFix" result="shape"/>
<feGaussianBlur stdDeviation="2" result="effect1_foregroundBlur_1067_873"/>
</filter>
</defs>
</svg>
