<svg width="32" height="32" viewBox="0 0 32 32" fill="none" xmlns="http://www.w3.org/2000/svg">
<path d="M28 7H20C18.9391 7 17.9217 7.42139 17.1716 8.17163C16.4214 8.92163 16 9.93921 16 11C16 9.93921 15.5786 8.92163 14.8284 8.17163C14.0783 7.42139 13.0609 7 12 7H4C3.7348 7 3.48041 7.10547 3.29291 7.29297C3.10535 7.48047 3 7.73486 3 8V24C3 24.2651 3.10535 24.5195 3.29291 24.707C3.48041 24.8945 3.7348 25 4 25H12C13.0609 25 14.0783 25.4214 14.8284 26.1716C15.5786 26.9216 16 27.9392 16 29C16 27.9392 16.4214 26.9216 17.1716 26.1716C17.9217 25.4214 18.9391 25 20 25H28C28.2652 25 28.5196 24.8945 28.7071 24.707C28.8947 24.5195 29 24.2651 29 24V8C29 7.73486 28.8947 7.48047 28.7071 7.29297C28.5196 7.10547 28.2652 7 28 7Z" fill="white" fill-opacity="0.1"/>
<path d="M16.4645 25.4645C15 26.9289 15 29 15 29C15 29.5523 15.4477 30 16 30C16.5523 30 17 29.5523 17 29C17 27.7574 17.8787 26.8787 17.8787 26.8787C18.7574 26 20 26 20 26H28C28.8284 26 29.4142 25.4142 29.4142 25.4142C30 24.8284 30 24 30 24V8C30 7.17157 29.4142 6.58579 29.4142 6.58579C28.8284 6 28 6 28 6H20C17.9289 6 16.4645 7.46447 16.4645 7.46447C15 8.92893 15 11 15 11C15 11.5523 15.4477 12 16 12C16.2652 12 16.5196 11.8946 16.7071 11.7071C16.8946 11.5196 17 11.2652 17 11C17 9.75736 17.8787 8.87868 17.8787 8.87868C18.7574 8 20 8 20 8H28V24H20C17.9289 24 16.4645 25.4645 16.4645 25.4645Z" fill="#CBD5E2"/>
<path fillRule="evenodd" clipRule="evenodd" d="M2 8C2 8 2 7.17157 2.58579 6.58579C2.58579 6.58579 3.17157 6 4 6H12C12 6 14.0711 6 15.5355 7.46447C15.5355 7.46447 17 8.92893 17 11V29C17 29.5523 16.5523 30 16 30C15.4477 30 15 29.5523 15 29C15 29 15 27.7574 14.1213 26.8787C14.1213 26.8787 13.2426 26 12 26H4C4 26 3.17157 26 2.58579 25.4142C2.58579 25.4142 2 24.8284 2 24V8ZM15 11V24.9934C15 24.9934 13.7057 24 12 24H4V8H12C12 8 13.2426 8 14.1213 8.87868C14.1213 8.87868 15 9.75736 15 11Z" fill="#CBD5E2"/>
</svg>
