<svg width="18" height="18" viewBox="0 0 18 18" fill="none" xmlns="http://www.w3.org/2000/svg">
<path d="M3.77296 8.60246L3.77275 8.60225C3.66726 8.49676 3.52418 8.4375 3.375 8.4375C3.22582 8.4375 3.08274 8.49676 2.97725 8.60225C2.87176 8.70774 2.8125 8.85082 2.8125 9C2.8125 9.00901 2.81272 9.01802 2.81315 9.02702C2.81987 9.1667 2.87837 9.29887 2.97725 9.39775L2.97746 9.39796L6.91475 13.3352C7.13442 13.5549 7.49058 13.5549 7.71025 13.3352L15.5852 5.46025C15.6907 5.35476 15.75 5.21168 15.75 5.0625C15.75 4.91332 15.6907 4.77024 15.5852 4.66475C15.4798 4.55926 15.3367 4.5 15.1875 4.5C15.0383 4.5 14.8952 4.55926 14.7898 4.66475L7.3125 12.142L3.77296 8.60246Z" fill="#1C1C1C"/>
</svg>
