<svg width="32" height="32" viewBox="0 0 32 32" fill="none" xmlns="http://www.w3.org/2000/svg">
<path d="M26.2125 15.2874C26.3986 15.4787 26.5017 15.7357 26.4994 16.0025C26.497 16.2694 26.3894 16.5245 26.2 16.7124L15.95 26.9499C14.6372 28.2628 12.8566 29.0003 11 29.0003C9.14338 29.0003 7.36281 28.2628 6.04999 26.9499C4.73717 25.6371 3.99963 23.8566 3.99963 21.9999C3.99963 20.1433 4.73717 18.3628 6.04999 17.0499L18.4625 4.47494C18.9217 3.99071 19.4733 3.60332 20.0846 3.33559C20.6959 3.06787 21.3547 2.92525 22.022 2.91612C22.6893 2.90699 23.3517 3.03154 23.9701 3.28244C24.5885 3.53334 25.1505 3.9055 25.6228 4.37699C26.0951 4.84848 26.4683 5.40975 26.7203 6.02773C26.9722 6.6457 27.098 7.30787 27.09 7.9752C27.0821 8.64253 26.9406 9.30152 26.674 9.91331C26.4073 10.5251 26.0209 11.0773 25.5375 11.5374L13.125 24.1124C12.8475 24.3942 12.5167 24.6178 12.1518 24.7701C11.787 24.9225 11.3954 25.0007 11 24.9999C10.4056 25.0014 9.82412 24.8263 9.32942 24.4967C8.83472 24.1672 8.44906 23.6981 8.22139 23.149C7.99372 22.5999 7.9343 21.9956 8.05067 21.4126C8.16703 20.8297 8.45394 20.2945 8.87499 19.8749L19.2875 9.29994C19.3776 9.19888 19.4873 9.11716 19.6099 9.05975C19.7325 9.00234 19.8655 8.97043 20.0009 8.96595C20.1362 8.96148 20.271 8.98453 20.3972 9.03371C20.5233 9.08289 20.6382 9.15718 20.7347 9.25207C20.8313 9.34696 20.9076 9.46048 20.959 9.58574C21.0104 9.711 21.0359 9.84539 21.0338 9.98077C21.0317 10.1162 21.0022 10.2497 20.9469 10.3733C20.8917 10.4969 20.8119 10.6081 20.7125 10.6999L10.3 21.2874C10.2052 21.3804 10.1299 21.4912 10.0784 21.6135C10.0268 21.7359 10.0002 21.8672 9.99999 21.9999C10.0037 22.1967 10.0646 22.3881 10.1753 22.5507C10.286 22.7134 10.4417 22.8403 10.6234 22.9159C10.805 22.9915 11.0048 23.0125 11.1982 22.9764C11.3917 22.9402 11.5704 22.8485 11.7125 22.7124L24.1125 10.1249C24.3942 9.84749 24.6178 9.51666 24.7702 9.1518C24.9226 8.78693 25.0007 8.39535 25 7.99994C25.0015 7.40553 24.8263 6.82408 24.4968 6.32937C24.1672 5.83467 23.6981 5.44901 23.149 5.22134C22.6 4.99367 21.9956 4.93425 21.4127 5.05062C20.8298 5.16698 20.2946 5.4539 19.875 5.87494L7.47499 18.4624C6.99076 18.9217 6.60336 19.4732 6.33564 20.0846C6.06792 20.6959 5.92529 21.3546 5.91617 22.0219C5.90704 22.6892 6.03159 23.3516 6.28249 23.9701C6.53339 24.5885 6.90555 25.1504 7.37704 25.6227C7.84853 26.0951 8.4098 26.4682 9.02778 26.7202C9.64575 26.9722 10.3079 27.0979 10.9752 27.09C11.6426 27.082 12.3016 26.9406 12.9134 26.6739C13.5252 26.4073 14.0774 26.0209 14.5375 25.5374L24.7875 15.2874C24.9771 15.0997 25.2331 14.9943 25.5 14.9943C25.7668 14.9943 26.0229 15.0997 26.2125 15.2874Z" fill="#1C1C1C"/>
</svg>
